<?xml version="1.0" encoding="UTF-8"?>
<!DOCTYPE svg PUBLIC "-//W3C//DTD SVG 1.1//EN" "http://www.w3.org/Graphics/SVG/1.1/DTD/svg11.dtd">
<!-- Creator: CorelDRAW X7 -->
<svg xmlns="http://www.w3.org/2000/svg" xml:space="preserve" width="20cm" height="8cm" version="1.1" style="shape-rendering:geometricPrecision; text-rendering:geometricPrecision; image-rendering:optimizeQuality; fill-rule:evenodd; clip-rule:evenodd"
viewBox="0 0 20000 8000"
 xmlns:xlink="http://www.w3.org/1999/xlink">
 <defs>
  <style type="text/css">
   <![CDATA[
    .fil2 {fill:#4A2885}
    .fil4 {fill:#4B2784}
    .fil3 {fill:#4B2785}
    .fil0 {fill:#4B2884}
    .fil1 {fill:#FBAE18}
   ]]>
  </style>
 </defs>
 <g id="Layer_x0020_1">
  <metadata id="CorelCorpID_0Corel-Layer"/>
  <path class="fil0" d="M15976 5378l1 801 -818 0c-192,0 -980,-444 -1231,-533 9,-151 579,-2334 615,-2384 20,-28 152,-155 186,-184l1394 -1262c112,67 650,590 784,706 136,117 273,238 408,357l391 371c57,72 609,2196 627,2395 -222,84 -1048,534 -1204,534l-837 -1 0 -802c355,120 880,366 1163,9 228,-288 156,-897 38,-1256 -129,-395 -347,-675 -555,-948 -93,-122 -643,-717 -818,-705 -164,12 -673,572 -789,712 -213,258 -446,578 -567,959 -118,370 -183,972 55,1251 278,325 809,108 1157,-20zm-2713 1454l5737 0 0 -5664 -5737 0 0 5664z"/>
  <path class="fil1" d="M15976 5378c-348,128 -879,345 -1157,20 -238,-279 -173,-881 -55,-1251 121,-381 354,-701 567,-959 116,-140 625,-700 789,-712 175,-12 725,583 818,705 208,273 426,553 555,948 118,359 190,968 -38,1256 -283,357 -808,111 -1163,-9l0 802 837 1c156,0 982,-450 1204,-534 -18,-199 -570,-2323 -627,-2395l-391 -371c-135,-119 -272,-240 -408,-357 -134,-116 -672,-639 -784,-706l-1394 1262c-34,29 -166,156 -186,184 -36,50 -606,2233 -615,2384 251,89 1039,533 1231,533l818 0 -1 -801z"/>
  <path class="fil0" d="M11613 3483l-493 0 0 -468c640,0 764,-62 764,271 0,149 -125,197 -271,197zm24 -739l-517 0 0 -418 444 0c160,0 270,62 270,221 0,119 -77,197 -197,197zm-886 1034l936 0c689,0 765,-790 246,-911 98,-85 246,-97 246,-418 0,-267 -248,-419 -517,-419l-911 0 0 1748z"/>
  <path class="fil2" d="M7451 5157l0 961c0,113 139,74 419,74 101,0 74,-78 74,-271l-197 0 0 -714c0,-163 293,-170 415,-147 401,75 51,557 293,941 174,275 506,256 769,117l0 74 271 0 0 -1404 -271 0 0 837c0,353 -402,375 -521,251 -146,-152 117,-750 -246,-986 -474,-308 -1006,33 -1006,267z"/>
  <path class="fil2" d="M7451 2449c0,284 48,454 404,556 296,84 557,87 557,330 0,255 -611,197 -936,25 -8,95 -41,224 -49,320 406,195 1198,220 1320,-257 204,-792 -951,-633 -951,-876 0,-399 830,-140 862,-172 25,-52 49,-215 49,-296 -191,-4 -615,-189 -1027,32 -102,55 -229,199 -229,338z"/>
  <path class="fil0" d="M4841 6192l222 0 295 -887c64,47 70,120 96,200l225 687 221 0c53,-228 120,-465 188,-699l181 -705 -270 0c-53,110 -75,267 -115,403 -47,163 -64,335 -132,385 -10,-123 -86,-282 -126,-391 -46,-128 -82,-280 -144,-397l-222 0c-20,85 -222,734 -296,788 -11,-141 -155,-612 -197,-788l-270 0c0,204 330,1228 344,1404z"/>
  <path class="fil3" d="M9003 2892c0,403 141,676 410,821 277,149 751,120 1018,-8 -5,-56 -17,-279 -74,-275 -103,7 -936,269 -936,-390 0,-388 -13,-804 619,-720 127,17 229,52 342,55 1,-65 28,-253 49,-296 -327,-76 -478,-156 -877,-40 -369,108 -551,443 -551,853z"/>
  <path class="fil0" d="M3142 5108c0,234 37,166 123,296 -116,173 -242,285 -103,547 238,450 1187,244 1187,-6l0 -1157c-388,0 -296,-148 -296,1083 -120,29 -233,87 -380,62 -480,-80 -281,-431 36,-431l147 0 0 -271c-366,0 -414,41 -418,-148 142,-33 276,-43 418,25l0 -271c-121,-28 -144,-49 -295,-49 -183,0 -419,146 -419,320z"/>
  <path class="fil2" d="M10973 5108c0,199 10,128 123,296 -55,81 -120,134 -151,245 -83,298 213,567 569,567 246,0 665,-90 665,-271l0 -1157 -271 0 0 1010c0,226 -862,169 -658,-164 90,-145 288,-132 437,-132l0 -271c-367,0 -415,41 -419,-148 142,-32 292,-36 419,25l0 -271c-121,-28 -145,-49 -296,-49 -182,0 -418,146 -418,320z"/>
  <path class="fil2" d="M9692 6118c132,30 308,98 468,98 914,0 780,-980 394,-1083 36,-133 127,-118 197,-222 -46,-63 -134,-103 -222,-123l-377 312c-77,63 -88,29 -115,131 722,60 611,714 172,714l-221 0 0 -1083c0,-96 -63,-74 -222,-74 -110,0 -75,153 -74,271l0 1059z"/>
  <path class="fil4" d="M2034 4862c-25,-96 -6,-74 -295,-74l0 1404c353,0 296,35 295,-321 0,-131 1,-262 0,-394 -1,-151 -45,-443 370,-443 337,0 248,423 246,862 -2,329 -54,296 295,296l0 -887c0,-348 -266,-542 -541,-542 -137,0 -266,75 -370,99z"/>
  <path class="fil0" d="M1000 4566c0,115 196,74 320,74 -27,102 -98,121 -98,345l0 1133c0,102 85,74 295,74l0 -1256c0,-62 300,-517 -197,-517l-320 0 0 147z"/>
  <path class="fil4" d="M6368 4862l0 295c1,0 616,-303 616,123l0 912c389,0 295,140 295,-862 0,-534 -506,-683 -911,-468z"/>
  <path class="fil4" d="M8387 4492c0,57 17,74 74,74l1034 0 0 -246 -1108 0 0 172z"/>
  <path class="fil4" d="M11761 4542l295 0 0 -99c210,0 197,18 197,-148 0,-95 -63,-73 -222,-73 -215,0 -270,102 -270,320z"/>
 </g>
</svg>
