<?xml version="1.0" standalone="no"?>
<!DOCTYPE svg PUBLIC "-//W3C//DTD SVG 20010904//EN"
 "http://www.w3.org/TR/2001/REC-SVG-20010904/DTD/svg10.dtd">
<svg version="1.0" xmlns="http://www.w3.org/2000/svg"
 width="785.000000pt" height="631.000000pt" viewBox="0 0 785.000000 631.000000"
 preserveAspectRatio="xMidYMid meet">

<g transform="translate(0.000000,631.000000) scale(0.100000,-0.100000)"
fill="#000000" stroke="none">
<path d="M2951 5860 c-31 -146 13 -325 111 -457 37 -49 115 -109 159 -122 50
-15 50 -19 3 -220 -39 -168 -91 -322 -111 -328 -7 -3 -39 22 -71 54 -50 51
-61 69 -86 145 -16 47 -37 99 -47 114 l-18 28 -16 -37 c-8 -20 -15 -51 -15
-70 0 -82 103 -209 191 -237 62 -19 61 -18 42 -53 -79 -155 -245 -334 -380
-411 -24 -14 -125 177 -178 338 -55 167 -56 156 14 211 71 56 137 134 192 225
55 93 79 170 79 253 0 98 -32 203 -44 146 -45 -205 -89 -357 -125 -426 -41
-77 -135 -203 -158 -210 -7 -3 -16 12 -23 35 -18 69 -57 252 -80 382 -13 69
-26 131 -30 139 -13 25 -23 -134 -15 -252 19 -301 103 -571 249 -796 100 -155
263 -294 416 -357 68 -27 189 -54 247 -54 l35 0 -7 -272 c-5 -182 -11 -277
-19 -284 -14 -15 -132 9 -186 36 -44 23 -114 98 -142 155 -11 22 -22 42 -25
45 -10 11 -23 -29 -23 -73 0 -130 99 -200 285 -202 l100 0 2 -90 c3 -100 21
-340 30 -397 l5 -36 -78 -6 c-127 -10 -230 -25 -371 -57 -171 -38 -166 -38
-159 9 3 20 8 70 12 110 l6 72 48 0 c98 0 209 66 231 138 13 44 9 114 -7 119
-7 2 -30 -24 -52 -59 -23 -35 -51 -76 -63 -91 -24 -31 -107 -77 -139 -77 -19
0 -20 4 -14 37 22 115 0 389 -32 400 -18 6 -37 -89 -42 -209 -2 -65 -7 -118
-10 -118 -18 0 -74 58 -100 104 -17 30 -37 58 -43 62 -18 11 -39 -25 -39 -69
0 -33 6 -45 37 -73 36 -34 86 -54 131 -54 12 0 25 -6 27 -12 12 -37 29 -320
20 -328 -20 -17 -489 -99 -501 -88 -3 3 0 97 6 208 5 112 10 220 10 240 0 35
5 41 69 88 38 28 92 79 120 114 59 73 133 217 157 303 l16 60 71 0 c87 1 147
25 204 82 44 44 69 115 58 165 l-7 30 -25 -24 c-14 -13 -43 -49 -64 -80 -62
-90 -112 -128 -190 -143 l-36 -7 5 161 c3 88 1 168 -3 178 -5 12 -21 -37 -50
-152 -50 -206 -80 -304 -98 -329 -31 -42 -134 29 -183 127 -32 61 -74 172 -74
192 0 7 27 28 61 46 97 52 179 167 178 249 0 43 -20 102 -35 107 -11 4 -44
-75 -65 -157 -6 -25 -20 -62 -31 -83 -24 -48 -107 -132 -118 -121 -19 21 -80
416 -80 521 0 38 3 43 28 49 97 20 185 75 208 129 16 40 18 93 4 115 -9 13
-16 9 -41 -20 -17 -19 -39 -51 -49 -71 -29 -55 -140 -144 -153 -121 -3 4 -8
70 -12 147 -14 287 -53 715 -65 715 -15 0 -20 -77 -26 -350 -5 -217 -3 -307
10 -428 15 -141 68 -481 82 -524 9 -28 -11 -22 -115 33 -117 63 -200 121 -265
187 l-48 50 20 53 c52 143 104 457 105 634 0 118 -16 252 -32 268 -9 9 -25
-51 -41 -153 -5 -36 -12 -159 -15 -275 -7 -273 -32 -495 -54 -495 -15 0 -94
122 -121 187 -15 35 -31 65 -36 66 -5 1 -10 -25 -12 -57 -4 -74 27 -166 78
-233 78 -104 276 -226 456 -282 l86 -27 44 -133 c46 -139 94 -238 146 -297 34
-38 95 -74 127 -74 32 0 32 -13 -5 -86 -48 -97 -113 -176 -185 -225 l-62 -42
-60 17 c-33 9 -84 29 -113 43 -58 28 -154 108 -154 128 0 7 22 27 49 44 53 34
121 123 141 184 12 39 8 89 -12 133 -16 35 -34 15 -59 -70 -12 -39 -28 -90
-36 -113 -17 -49 -82 -143 -100 -143 -25 0 -75 128 -123 320 -14 58 -30 105
-35 105 -31 0 -31 -237 0 -315 28 -70 101 -175 153 -220 83 -71 206 -120 305
-120 29 0 49 -5 52 -12 2 -7 8 -121 14 -253 8 -187 8 -241 -2 -247 -17 -11
-197 -10 -313 2 -115 12 -333 55 -346 68 -10 10 9 285 22 319 5 12 21 24 37
27 46 11 118 70 141 117 25 50 16 59 -30 31 -41 -25 -160 -73 -166 -68 -2 3 2
51 9 108 7 57 12 124 11 151 -2 51 -25 117 -40 117 -17 0 -42 -79 -42 -133 0
-28 7 -99 15 -155 13 -93 13 -105 -1 -119 -11 -12 -14 -28 -10 -67 18 -165 28
-307 23 -312 -3 -3 -43 6 -89 21 -113 38 -118 39 -78 17 89 -50 348 -123 519
-146 260 -37 488 -16 981 88 320 67 460 79 606 51 43 -8 225 -64 404 -125 395
-133 513 -169 698 -214 370 -91 827 -135 1107 -107 487 49 884 168 1072 321
70 58 105 105 139 187 13 32 24 52 24 44 0 -8 3 -12 6 -9 7 8 -6 78 -16 78 -4
0 -10 -18 -13 -39 -15 -113 -109 -213 -281 -297 -62 -30 -130 -57 -151 -61
l-38 -6 6 59 c4 32 9 102 12 154 9 135 9 137 49 144 42 8 124 79 142 123 8 18
14 47 14 64 l0 31 -41 -42 c-25 -26 -70 -55 -117 -77 -43 -19 -84 -38 -92 -43
-11 -6 -15 -26 -15 -81 0 -68 -2 -74 -20 -71 -30 4 -80 62 -97 113 -9 24 -21
77 -27 118 -12 81 -45 166 -60 157 -15 -10 -34 -105 -29 -150 6 -50 47 -145
84 -193 28 -37 91 -73 128 -73 26 0 22 16 42 -180 6 -59 5 -60 -23 -71 -48
-18 -228 -57 -235 -50 -4 3 -2 50 4 103 6 54 9 100 6 104 -4 3 -36 12 -72 21
-38 8 -79 25 -95 39 -16 13 -32 24 -35 24 -13 0 -5 -77 10 -99 19 -26 71 -51
107 -51 22 0 25 -6 31 -52 4 -29 9 -63 12 -75 4 -15 0 -23 -13 -27 -23 -7
-312 -43 -417 -51 l-79 -7 7 109 c3 59 9 142 12 184 l6 76 68 10 c179 28 314
153 327 303 6 64 -4 150 -17 150 -4 0 -20 -33 -35 -72 -63 -169 -87 -216 -127
-257 -41 -43 -141 -98 -187 -103 l-24 -3 -2 235 c-1 222 -14 350 -35 350 -11
0 -29 -101 -41 -231 -6 -62 -12 -116 -14 -118 -9 -9 -80 46 -107 83 -41 57
-56 96 -79 206 -25 124 -52 213 -66 217 -18 6 -36 -104 -30 -174 14 -142 125
-303 238 -344 55 -20 59 -24 59 -53 0 -42 18 -359 26 -475 l7 -94 -179 6
c-161 6 -450 31 -481 42 -8 3 -13 24 -13 60 l0 55 41 0 c50 0 150 25 198 50
57 29 127 96 150 143 22 45 29 158 12 186 -10 16 -7 21 -76 -117 -42 -84 -66
-120 -98 -146 -47 -38 -132 -80 -184 -91 l-33 -7 0 60 c0 32 3 100 6 149 l7
91 39 13 c59 19 144 79 176 124 54 75 80 176 67 255 -8 47 -17 43 -35 -15 -16
-53 -68 -150 -90 -170 -16 -14 -21 -12 -63 25 -49 43 -90 118 -101 185 -11 61
-56 195 -67 195 -17 0 -31 -54 -32 -120 0 -54 6 -76 32 -128 40 -78 88 -132
146 -163 25 -13 45 -28 45 -34 -1 -16 -86 -79 -129 -95 -22 -9 -43 -19 -48
-23 -4 -5 -6 -53 -5 -108 3 -68 0 -99 -8 -99 -20 0 -88 39 -125 72 -44 38 -65
78 -99 190 -60 199 -86 221 -94 79 -4 -73 -2 -85 26 -145 54 -116 151 -195
260 -212 49 -8 48 -5 57 -151 4 -65 2 -103 -4 -103 -25 0 -300 54 -414 81
l-129 31 6 102 c6 92 26 571 26 623 0 16 9 24 38 33 205 66 364 286 350 485
-4 55 -1 59 -50 -61 -16 -39 -35 -80 -43 -90 -13 -18 -15 -16 -35 30 -12 26
-28 85 -35 131 -13 79 -37 155 -50 155 -3 0 -15 -21 -27 -46 -15 -34 -18 -57
-14 -86 9 -55 50 -131 97 -183 l39 -42 -40 -50 c-22 -28 -63 -68 -93 -90 -54
-42 -151 -95 -159 -88 -2 2 5 109 15 237 16 190 17 248 8 314 -13 93 -30 149
-41 137 -5 -4 -16 -44 -25 -88 -14 -64 -16 -108 -10 -219 l7 -139 -34 7 c-48
9 -135 72 -170 124 -18 27 -48 101 -74 184 -24 77 -48 147 -53 156 -16 29 -32
-33 -33 -121 0 -66 5 -88 31 -143 55 -118 166 -205 284 -222 l52 -7 9 -109 c7
-83 6 -114 -4 -129 -9 -15 -11 -76 -6 -256 4 -130 9 -248 12 -263 5 -24 2 -28
-18 -28 -35 0 -120 45 -167 88 -24 21 -65 81 -98 141 -32 58 -62 104 -68 103
-15 -3 -18 -101 -5 -145 30 -100 195 -207 321 -207 l36 0 5 -112 c3 -62 4
-114 3 -116 -5 -6 -155 39 -435 130 -282 92 -413 128 -464 128 -28 0 -28 1
-22 43 3 23 8 71 11 107 3 36 8 83 11 106 l5 41 77 6 c210 16 394 170 447 374
17 64 20 133 6 133 -5 0 -26 -30 -46 -67 -74 -135 -157 -263 -171 -263 -24 0
-72 99 -84 174 -21 140 -29 175 -48 218 l-20 43 -16 -37 c-42 -98 3 -276 95
-371 27 -28 49 -54 49 -57 0 -12 -88 -70 -143 -95 -30 -14 -74 -28 -99 -31
l-45 -6 0 218 c0 121 -4 301 -8 402 -7 174 -6 182 11 182 36 0 192 78 272 134
76 53 220 195 244 240 6 11 -27 -15 -73 -59 -81 -76 -195 -163 -203 -154 -2 2
0 85 3 183 l6 179 56 19 c36 12 69 32 95 59 33 34 39 46 39 84 0 63 -17 76
-54 41 -15 -15 -33 -44 -39 -64 -12 -39 -76 -111 -89 -99 -3 4 -1 202 5 440
17 593 16 701 -4 721 -8 9 -27 16 -40 16 -115 0 -206 77 -244 207 -17 55 -34
44 -25 -16 18 -128 74 -208 178 -251 l57 -24 0 -90 c0 -50 5 -219 10 -376 6
-169 6 -288 1 -293 -14 -14 -80 12 -97 37 -8 13 -30 32 -50 42 -30 17 -36 17
-45 4 -12 -19 -3 -69 17 -91 24 -27 81 -42 134 -36 l47 6 7 -187 c3 -103 9
-264 12 -357 l7 -171 -69 -31 c-38 -18 -102 -41 -143 -52 -40 -11 -78 -24 -85
-30 -12 -10 -94 0 -166 19 -113 30 -253 122 -355 232 -58 63 -65 74 -50 83 52
31 195 128 222 151 l33 26 49 -21 c55 -23 150 -28 213 -11 56 16 140 122 115
147 -6 5 -77 -28 -177 -83 -32 -17 -60 -24 -100 -24 -82 0 -86 8 -39 65 146
177 259 423 290 634 12 83 8 365 -5 378 -11 12 -16 -3 -33 -111 -10 -64 -23
-110 -30 -113 -15 -6 -81 41 -117 84 -42 50 -84 151 -101 248 -15 82 -29 144
-56 248 -5 20 -14 37 -19 37 -4 0 -13 -23 -19 -50z"/>
<path d="M1430 4128 c-48 -134 -179 -530 -216 -655 -86 -293 -151 -628 -199
-1028 -36 -301 -38 -280 43 -356 113 -106 256 -177 446 -222 78 -18 122 -21
306 -22 249 0 261 2 735 95 600 118 749 140 950 140 142 0 190 -8 385 -60 375
-102 724 -144 1185 -144 277 0 468 16 657 55 156 31 531 126 638 160 360 116
498 256 505 514 1 55 1 82 -1 60 -17 -184 -49 -271 -128 -351 -112 -111 -266
-178 -576 -249 -58 -13 -175 -40 -260 -60 -307 -71 -527 -90 -910 -82 -421 10
-742 55 -1099 157 -201 57 -248 64 -436 64 -201 0 -320 -16 -830 -109 -544
-99 -616 -108 -835 -102 -164 4 -199 8 -305 36 -149 38 -281 102 -359 175 -46
43 -56 57 -52 77 3 13 8 67 11 119 9 128 52 481 85 685 28 177 79 394 175 746
58 211 103 384 101 386 -2 2 -9 -11 -16 -29z"/>
<path d="M6852 2750 c0 -19 2 -27 5 -17 2 9 2 25 0 35 -3 9 -5 1 -5 -18z"/>
<path d="M3174 1271 c-87 -39 -102 -96 -94 -343 5 -159 11 -175 73 -222 34
-25 143 -34 187 -16 41 17 87 71 101 119 13 45 9 65 -20 81 -17 8 -24 7 -41
-10 -11 -11 -20 -31 -20 -45 0 -50 -59 -83 -126 -71 -70 14 -74 25 -74 216 0
168 0 171 25 195 34 35 121 36 153 2 12 -13 22 -33 22 -44 0 -33 33 -67 58
-59 28 9 35 36 22 84 -29 110 -155 163 -266 113z"/>
<path d="M3619 1267 c-29 -15 -52 -38 -67 -65 -23 -40 -24 -52 -23 -217 1 -96
6 -187 12 -202 25 -67 86 -103 174 -103 62 0 97 14 138 57 40 43 47 80 47 253
-1 201 -18 245 -113 285 -53 22 -116 19 -168 -8z m171 -92 c22 -23 24 -35 28
-169 5 -166 -4 -208 -48 -231 -49 -26 -130 -12 -150 25 -6 10 -10 93 -10 185
0 163 0 166 25 190 20 20 34 25 78 25 44 0 58 -4 77 -25z"/>
<path d="M2646 1258 c-14 -19 -16 -62 -16 -270 0 -136 4 -258 10 -272 l10 -26
164 0 c155 0 166 1 176 20 8 14 8 26 0 40 -10 18 -21 20 -140 20 l-130 0 0 85
0 85 83 0 c85 0 107 8 107 41 0 37 -28 49 -111 49 l-79 0 0 79 c0 63 3 80 16
85 9 3 67 6 129 6 104 0 115 2 125 20 8 14 8 26 0 40 -10 19 -21 20 -170 20
-153 0 -159 -1 -174 -22z"/>
<path d="M3992 1268 c-15 -15 -16 -54 -2 -63 6 -4 58 -7 115 -7 58 0 107 -3
110 -8 3 -5 -37 -84 -88 -177 -144 -260 -149 -269 -145 -294 3 -22 9 -25 63
-29 33 -3 109 -3 169 0 89 4 111 8 120 23 8 12 8 22 0 35 -9 14 -29 17 -123
20 -68 2 -111 7 -111 13 0 6 54 108 120 228 66 119 120 224 120 232 0 34 -22
39 -180 39 -108 0 -160 -4 -168 -12z"/>
<path d="M4436 1264 c-14 -14 -16 -50 -14 -287 l3 -272 25 -10 c15 -6 82 -8
175 -5 147 5 150 5 153 28 7 46 -11 52 -149 52 l-129 0 0 85 0 85 84 0 c64 0
88 4 100 16 44 43 -1 74 -106 74 l-78 0 0 80 c0 95 -10 89 160 93 112 2 115 3
118 25 7 47 -9 52 -174 52 -126 0 -155 -3 -168 -16z"/>
<path d="M4870 1261 c-6 -12 -10 -121 -10 -284 0 -285 1 -292 52 -285 23 3 23
4 26 181 1 97 6 177 11 177 5 0 44 -64 87 -142 113 -207 120 -218 149 -218 14
0 29 8 35 19 6 12 10 118 10 273 0 213 -2 257 -16 276 -19 27 -50 29 -64 3 -6
-11 -10 -91 -10 -187 0 -101 -4 -164 -9 -158 -5 5 -48 81 -96 169 -48 88 -94
168 -103 178 -20 23 -49 22 -62 -2z"/>
</g>
</svg>
